<?xml version="1.0" encoding="UTF-8" standalone="no"?><!DOCTYPE svg PUBLIC "-//W3C//DTD SVG 1.1//EN" "http://www.w3.org/Graphics/SVG/1.1/DTD/svg11.dtd"><svg width="100%" height="100%" viewBox="0 0 310 274" version="1.1" xmlns="http://www.w3.org/2000/svg" xmlns:xlink="http://www.w3.org/1999/xlink" xml:space="preserve" xmlns:serif="http://www.serif.com/" style="fill-rule:evenodd;clip-rule:evenodd;stroke-linejoin:round;stroke-miterlimit:2;"><path d="M96.186,273.854c-5.31,0 -12.968,-2.655 -22.974,-7.964c-10.007,-5.31 -15.01,-10.211 -15.01,-14.704c0,-6.535 0.817,-13.274 2.451,-20.217c1.634,-6.943 3.063,-12.661 4.289,-17.154c1.225,-4.493 2.246,-7.964 3.063,-10.415l37.984,-134.17c0.817,-4.084 1.225,-6.943 1.225,-8.577c0,-2.859 -1.021,-5.003 -3.063,-6.433c-2.042,-1.43 -5.514,-2.144 -10.415,-2.144c-21.647,0 -38.291,3.982 -49.931,11.947c-11.64,7.964 -21.136,23.179 -28.488,45.642c-0.408,0.817 -0.919,2.553 -1.532,5.208c-0.613,2.655 -2.144,3.982 -4.595,3.982c-2.451,0 -4.595,-2.144 -6.433,-6.433c-1.838,-4.289 -2.757,-10.313 -2.757,-18.073c0,-12.661 3.37,-25.221 10.109,-37.678c6.739,-12.457 17.869,-22.974 33.389,-31.551c15.52,-8.577 35.738,-12.866 60.652,-12.866c20.013,0 48.808,1.225 86.383,3.676c28.59,1.634 48.399,2.451 59.427,2.451c13.07,-0 25.731,-3.472 37.984,-10.415c1.634,-1.225 3.982,-2.859 7.045,-4.901c3.063,-2.042 5.412,-3.063 7.045,-3.063c2.859,0 4.901,1.43 6.126,4.289c1.225,2.859 1.838,7.76 1.838,14.704c0,8.577 -2.655,17.563 -7.964,26.957c-5.31,9.394 -10.211,14.091 -14.704,14.091c-7.352,0 -17.154,-0.408 -29.407,-1.225l-15.316,-1.225c-7.352,0 -12.355,1.123 -15.01,3.37c-2.655,2.246 -4.595,7.454 -5.82,15.623l-2.451,16.542c-0.408,3.267 -2.553,17.971 -6.433,44.111c-3.88,26.14 -5.82,45.132 -5.82,56.976c0,7.352 2.144,12.764 6.433,16.235c4.289,3.472 9.904,5.412 16.848,5.82l3.676,0c6.126,0 11.845,-1.021 17.154,-3.063c6.535,-2.451 9.802,-3.676 9.802,-3.676c2.451,-0 4.084,0.715 4.901,2.144c0.817,1.43 1.225,3.982 1.225,7.658c0,12.253 -3.982,24.097 -11.947,35.534c-7.964,11.436 -18.89,17.154 -32.777,17.154c-11.028,0 -20.422,-5.31 -28.182,-15.929c-7.76,-10.619 -11.64,-25.731 -11.64,-45.336c0,-11.436 3.063,-39.005 9.19,-82.708c4.493,-29.816 6.739,-48.399 6.739,-55.751c0,-4.084 -0.919,-7.658 -2.757,-10.721c-1.838,-3.063 -4.186,-4.595 -7.045,-4.595l-47.787,-1.838c-4.084,-0.408 -7.352,0.408 -9.802,2.451c-2.451,2.042 -4.289,5.514 -5.514,10.415c-17.154,64.941 -25.731,117.016 -25.731,156.225c0,13.07 0.817,24.097 2.451,33.083l1.225,9.802c0,4.493 -2.451,6.739 -7.352,6.739Z" style="fill:#fff;fill-opacity:0.9;fill-rule:nonzero;"/></svg>